<svg width="1500" height="500" viewBox="0 0 1500 500" fill="none" xmlns="http://www.w3.org/2000/svg">
<rect width="1500" height="500" fill="white"/>
<rect x="22" y="296.683" width="108.77" height="38.226" transform="rotate(-90 22 296.683)" fill="#FA9819"/>
<rect x="67.9084" y="296.683" width="108.77" height="32.7919" transform="rotate(-90 67.9084 296.683)" fill="#F45F00"/>
<rect x="108.078" y="296.683" width="108.77" height="21.3147" transform="rotate(-90 108.078 296.683)" fill="#48749E"/>
<path d="M167.68 286V198.832H180.852V286H167.68ZM188.691 286V209.486H198.957L201.734 224.272V286H188.691ZM236.665 286V242.287C236.665 233.419 235.331 227.135 232.662 223.433C230.036 219.731 226.033 217.88 220.652 217.88C215.271 217.88 210.709 219.86 206.964 223.82C203.219 227.78 201.346 232.774 201.346 238.8L195.018 234.797C195.018 228.512 197.838 222.593 203.477 217.04C209.159 211.487 216.455 208.711 225.366 208.711C234.233 208.711 240.496 211.703 244.155 217.686C247.857 223.626 249.708 231.805 249.708 242.222V286H236.665ZM262.041 286V218.59H246.48V209.486H262.041V204.643C262.041 197.024 265.076 191.708 271.145 188.694C277.258 185.638 285.415 184.11 295.617 184.11H297.812V192.891H295.875C289.332 192.891 284.231 193.666 280.572 195.216C276.913 196.766 275.084 199.929 275.084 204.708V209.486H296.973V218.59H275.084V286H262.041ZM327.726 286.646C315.845 286.646 307.3 283.202 302.092 276.315C296.84 269.384 294.215 259.806 294.215 247.581C294.215 234.625 296.905 224.918 302.286 218.461C307.623 211.961 316.039 208.711 327.532 208.711C339.37 208.711 347.85 211.961 352.972 218.461C358.052 224.961 360.591 234.603 360.591 247.388C360.591 248.894 360.505 250.293 360.333 251.585H305.45V243.449H347.419C347.075 234.065 345.375 227.436 342.318 223.562C338.789 219.429 333.86 217.363 327.532 217.363C321.377 217.363 316.405 219.537 312.617 223.885C308.786 228.275 306.87 236.174 306.87 247.581C306.87 258.386 308.721 266.134 312.423 270.826C316.082 275.604 321.183 277.993 327.726 277.993V286.646ZM327.726 277.993C331.471 277.993 334.742 277.369 337.54 276.121C340.338 274.873 342.512 272.742 344.062 269.729C345.525 266.715 346.623 263.315 347.355 259.527L359.106 262.691C358.375 267.942 356.696 272.397 354.07 276.056C351.401 279.758 347.957 282.449 343.739 284.127C339.52 285.806 334.183 286.646 327.726 286.646V277.993ZM409.1 245.128C409.1 234.625 407.83 227.479 405.29 223.691C402.794 219.86 399.113 217.944 394.249 217.944C388.696 217.944 384.327 219.817 381.142 223.562C377.956 227.264 376.363 231.461 376.363 236.153L371.327 232.472C371.327 225.929 373.824 220.355 378.817 215.749C383.81 211.143 390.526 208.84 398.963 208.84C407.658 208.84 413.684 211.746 417.042 217.557C420.443 223.325 422.143 232.515 422.143 245.128H409.1ZM363.385 286V209.486H373.652L376.428 224.272V286H363.385ZM455.245 286.646C443.364 286.646 434.819 283.202 429.611 276.315C424.359 269.384 421.733 259.806 421.733 247.581C421.733 234.625 424.424 224.918 429.804 218.461C435.142 211.961 443.558 208.711 455.051 208.711C466.889 208.711 475.369 211.961 480.491 218.461C485.571 224.961 488.11 234.603 488.11 247.388C488.11 248.894 488.024 250.293 487.852 251.585H432.968V243.449H474.938C474.594 234.065 472.893 227.436 469.837 223.562C466.307 219.429 461.379 217.363 455.051 217.363C448.895 217.363 443.924 219.537 440.135 223.885C436.304 228.275 434.389 236.174 434.389 247.581C434.389 258.386 436.24 266.134 439.942 270.826C443.601 275.604 448.702 277.993 455.245 277.993V286.646ZM455.245 277.993C458.99 277.993 462.261 277.369 465.059 276.121C467.857 274.873 470.031 272.742 471.581 269.729C473.044 266.715 474.142 263.315 474.874 259.527L486.625 262.691C485.893 267.942 484.215 272.397 481.589 276.056C478.92 279.758 475.476 282.449 471.258 284.127C467.039 285.806 461.702 286.646 455.245 286.646V277.993ZM490.904 286V209.486H501.17L503.947 224.272V286H490.904ZM538.879 286V242.287C538.879 233.419 537.544 227.135 534.875 223.433C532.25 219.731 528.246 217.88 522.866 217.88C517.485 217.88 512.922 219.86 509.177 223.82C505.432 227.78 503.559 232.774 503.559 238.8L497.232 234.797C497.232 228.512 500.051 222.593 505.69 217.04C511.372 211.487 518.669 208.711 527.579 208.711C536.447 208.711 542.71 211.703 546.369 217.686C550.071 223.626 551.922 231.805 551.922 242.222V286H538.879ZM587.18 286.517C577.968 286.517 570.521 284.859 564.839 281.545C559.157 278.23 555.649 272.29 554.315 263.724L565.873 259.785C566.604 266.242 568.8 270.869 572.459 273.667C576.161 276.465 581.132 277.864 587.374 277.864C593.271 277.864 597.684 276.831 600.611 274.765C603.581 272.656 605.066 269.901 605.066 266.5C605.066 261.636 602.806 258.386 598.286 256.75C593.766 255.071 588.084 253.479 581.24 251.972C573.449 250.293 567.099 247.904 562.192 244.805C557.328 241.663 554.896 236.454 554.896 229.179C554.896 222.55 557.586 217.514 562.967 214.07C568.348 210.583 575.73 208.84 585.114 208.84C594.455 208.84 601.816 210.54 607.197 213.941C612.62 217.299 615.957 222.895 617.205 230.729L605.647 234.668C604.915 229.029 602.784 224.746 599.255 221.818C595.768 218.891 591.011 217.428 584.985 217.428C579.174 217.428 574.848 218.482 572.007 220.592C569.209 222.701 567.81 225.542 567.81 229.115C567.81 233.591 569.94 236.648 574.202 238.283C578.507 239.919 583.952 241.49 590.538 242.997C598.329 244.59 604.851 246.85 610.102 249.777C615.397 252.661 618.044 257.934 618.044 265.596C618.044 272.656 615.418 277.907 610.167 281.351C604.915 284.795 597.253 286.517 587.18 286.517ZM638.52 286L616.179 209.486H629.803L648.399 277.025H648.528L666.93 209.486H680.619L658.472 286H638.52ZM619.278 315.766V306.791C626.596 306.791 632.321 305.414 636.454 302.659C640.586 299.947 643.879 294.394 646.333 286H658.472C654.985 297.967 650.056 305.909 643.685 309.826C637.314 313.786 629.179 315.766 619.278 315.766ZM711.672 286.517C702.461 286.517 695.014 284.859 689.332 281.545C683.649 278.23 680.141 272.29 678.807 263.724L690.365 259.785C691.096 266.242 693.292 270.869 696.951 273.667C700.653 276.465 705.624 277.864 711.866 277.864C717.763 277.864 722.176 276.831 725.103 274.765C728.073 272.656 729.558 269.901 729.558 266.5C729.558 261.636 727.298 258.386 722.778 256.75C718.258 255.071 712.576 253.479 705.732 251.972C697.941 250.293 691.591 247.904 686.684 244.805C681.82 241.663 679.388 236.454 679.388 229.179C679.388 222.55 682.078 217.514 687.459 214.07C692.84 210.583 700.222 208.84 709.606 208.84C718.947 208.84 726.308 210.54 731.689 213.941C737.113 217.299 740.449 222.895 741.697 230.729L730.139 234.668C729.407 229.029 727.277 224.746 723.747 221.818C720.26 218.891 715.503 217.428 709.477 217.428C703.666 217.428 699.34 218.482 696.499 220.592C693.701 222.701 692.302 225.542 692.302 229.115C692.302 233.591 694.432 236.648 698.694 238.283C702.999 239.919 708.444 241.49 715.03 242.997C722.821 244.59 729.343 246.85 734.594 249.777C739.889 252.661 742.536 257.934 742.536 265.596C742.536 272.656 739.911 277.907 734.659 281.351C729.407 284.795 721.745 286.517 711.672 286.517Z" fill="#1E3D59"/>
<path d="M1062.65 234.143C1051.64 234.143 1042.7 230.593 1035.85 223.493C1028.99 216.358 1025.56 207.163 1025.56 195.907C1025.56 184.443 1029.11 175.178 1036.21 168.113C1043.34 161.013 1052.3 157.463 1063.07 157.463C1067.4 157.463 1071.21 157.965 1074.5 158.969C1077.79 159.974 1080.73 161.29 1083.33 162.917C1085.96 164.545 1088.04 166.19 1089.56 167.853C1091.09 169.481 1091.85 170.295 1091.85 170.295L1086.13 175.438C1086.13 175.438 1085.46 174.71 1084.11 173.256C1082.76 171.801 1081.1 170.468 1079.12 169.256C1077.15 168.043 1074.86 167.039 1072.26 166.242C1069.67 165.411 1066.62 164.996 1063.12 164.996C1054.81 164.996 1047.83 167.853 1042.18 173.568C1036.54 179.248 1033.72 186.694 1033.72 195.907C1033.72 204.877 1036.43 212.237 1041.87 217.986C1047.31 223.701 1054.31 226.558 1062.86 226.558C1066.57 226.558 1069.86 226.125 1072.73 225.259C1075.64 224.393 1078.19 223.216 1080.37 221.727C1082.55 220.237 1084.26 218.731 1085.51 217.207C1086.76 215.683 1087.38 214.921 1087.38 214.921L1093.41 219.752C1093.41 219.752 1092.58 220.757 1090.91 222.766C1089.25 224.774 1087.05 226.662 1084.32 228.428C1081.61 230.16 1078.48 231.545 1074.91 232.584C1071.38 233.623 1067.29 234.143 1062.65 234.143ZM1115.95 234.143C1109.82 234.143 1105.06 232.307 1101.66 228.636C1098.3 224.93 1096.62 219.926 1096.62 213.622V178.97H1104.47V211.7C1104.47 216.583 1105.58 220.324 1107.79 222.921C1110.01 225.484 1113.26 226.766 1117.56 226.766C1122.17 226.766 1125.92 225.138 1128.83 221.882C1131.78 218.592 1133.25 214.471 1133.25 209.518V178.97H1141.09V233H1133.46V221.051L1137.04 224.636H1133.35C1131.69 227.58 1129.33 229.9 1126.29 231.597C1123.24 233.294 1119.79 234.143 1115.95 234.143ZM1167.28 234.143C1163.61 234.143 1160.46 233.675 1157.83 232.74C1155.23 231.805 1152.98 230.454 1151.07 228.688C1149.17 226.922 1147.71 225.069 1146.71 223.129C1145.74 221.19 1145.25 220.22 1145.25 220.22L1152.37 216.895C1152.37 216.895 1152.8 217.674 1153.67 219.233C1154.57 220.757 1155.63 222.108 1156.84 223.285C1158.08 224.463 1159.57 225.38 1161.31 226.039C1163.07 226.697 1165.24 227.026 1167.8 227.026C1171.19 227.026 1174 226.298 1176.22 224.844C1178.47 223.354 1179.59 221.328 1179.59 218.765C1179.59 216.168 1178.67 214.228 1176.84 212.947C1175.04 211.631 1171.59 210.349 1166.5 209.102C1159.19 207.336 1154.17 205.189 1151.44 202.66C1148.7 200.097 1147.33 196.824 1147.33 192.842C1147.33 188.408 1149.18 184.789 1152.89 181.984C1156.63 179.178 1161.36 177.776 1167.07 177.776C1169.88 177.776 1172.35 178.122 1174.5 178.815C1176.65 179.507 1178.57 180.564 1180.27 181.984C1182 183.404 1183.39 184.962 1184.42 186.659C1185.5 188.356 1186.03 189.205 1186.03 189.205L1179.33 192.686C1179.33 192.686 1178.93 192.097 1178.14 190.919C1177.34 189.707 1176.39 188.651 1175.28 187.75C1174.21 186.815 1172.94 186.122 1171.49 185.672C1170.07 185.222 1168.42 184.997 1166.55 184.997C1163.09 184.997 1160.34 185.724 1158.29 187.179C1156.28 188.633 1155.28 190.365 1155.28 192.374C1155.28 194.833 1156.28 196.721 1158.29 198.037C1160.34 199.318 1163.96 200.565 1169.15 201.777C1175.8 203.37 1180.53 205.379 1183.33 207.804C1186.17 210.193 1187.59 213.657 1187.59 218.194C1187.59 223.112 1185.71 227.008 1181.93 229.883C1178.16 232.723 1173.27 234.143 1167.28 234.143ZM1207.49 234.143C1203.78 234.143 1200.67 233.035 1198.14 230.818C1195.61 228.567 1194.34 224.861 1194.34 219.7V165.048H1202.19V218.921C1202.19 221.9 1202.74 223.995 1203.85 225.207C1204.99 226.419 1206.61 227.026 1208.68 227.026C1209.51 227.026 1210.29 226.974 1211.02 226.87C1211.75 226.731 1212.65 226.506 1213.72 226.194C1214.8 225.883 1215.33 225.727 1215.33 225.727V232.792C1215.33 232.792 1214.81 232.931 1213.77 233.208C1212.77 233.52 1211.75 233.745 1210.71 233.883C1209.67 234.056 1208.6 234.143 1207.49 234.143ZM1185.31 185.776V178.97H1215.59V185.776H1185.31ZM1244.62 234.143C1236.69 234.143 1230.05 231.407 1224.72 225.935C1219.42 220.428 1216.77 213.761 1216.77 205.933C1216.77 198.106 1219.42 191.456 1224.72 185.984C1230.05 180.512 1236.69 177.776 1244.62 177.776C1252.48 177.776 1259.09 180.529 1264.46 186.036C1269.83 191.508 1272.51 198.141 1272.51 205.933C1272.51 213.761 1269.83 220.428 1264.46 225.935C1259.13 231.407 1252.51 234.143 1244.62 234.143ZM1244.62 226.61C1250.05 226.61 1254.71 224.653 1258.59 220.739C1262.51 216.791 1264.46 211.856 1264.46 205.933C1264.46 200.011 1262.51 195.11 1258.59 191.231C1254.71 187.317 1250.05 185.361 1244.62 185.361C1239.14 185.361 1234.47 187.317 1230.59 191.231C1226.71 195.11 1224.77 200.011 1224.77 205.933C1224.77 211.856 1226.71 216.791 1230.59 220.739C1234.47 224.653 1239.14 226.61 1244.62 226.61ZM1277.83 233V178.97H1285.47V187.906L1284.69 187.231H1285.57C1287.23 184.529 1289.61 182.278 1292.69 180.477C1295.77 178.676 1299.18 177.776 1302.92 177.776C1306.91 177.776 1310.44 178.832 1313.52 180.945C1316.6 183.057 1318.63 185.707 1319.6 188.893C1321.68 185.291 1324.33 182.538 1327.55 180.633C1330.8 178.728 1334.37 177.776 1338.25 177.776C1344.1 177.776 1348.66 179.646 1351.91 183.386C1355.17 187.127 1356.8 191.993 1356.8 197.985V233H1349V199.803C1349 195.231 1347.93 191.664 1345.78 189.101C1343.67 186.538 1340.62 185.257 1336.64 185.257C1332.55 185.257 1328.97 186.85 1325.88 190.036C1322.8 193.223 1321.26 197.275 1321.26 202.193V233H1313.42V200.011C1313.42 195.439 1312.36 191.837 1310.25 189.205C1308.13 186.538 1305.05 185.205 1301 185.205C1296.88 185.205 1293.29 186.832 1290.25 190.088C1287.2 193.309 1285.67 197.379 1285.67 202.297V233H1277.83ZM1378.37 233L1407.78 158.606H1415.78L1445.13 233H1436.35L1412.77 171.749L1411.78 168.84H1411.68L1410.64 171.749L1387 233H1378.37ZM1390.84 212.167L1393.49 204.635H1429.13L1431.83 212.167H1390.84ZM1449.6 233V158.606H1457.66V233H1449.6ZM1104.84 338.143C1100.3 338.143 1096.37 337.485 1093.05 336.169C1089.72 334.853 1086.95 333.017 1084.74 330.662C1082.52 328.272 1080.86 325.778 1079.75 323.181C1078.64 320.583 1078.09 319.285 1078.09 319.285L1085.62 316.375C1085.62 316.375 1086.07 317.432 1086.97 319.544C1087.87 321.622 1089.12 323.51 1090.71 325.207C1092.3 326.904 1094.3 328.255 1096.69 329.259C1099.11 330.264 1101.95 330.766 1105.21 330.766C1110.3 330.766 1114.3 329.571 1117.21 327.181C1120.15 324.791 1121.62 321.467 1121.62 317.206C1121.62 313.327 1120.34 310.28 1117.78 308.063C1115.21 305.846 1110.42 303.682 1103.39 301.569C1094.8 298.937 1089 295.941 1085.98 292.582C1082.97 289.187 1081.46 285.118 1081.46 280.373C1081.46 274.935 1083.56 270.433 1087.75 266.866C1091.98 263.264 1097.55 261.463 1104.48 261.463C1108.36 261.463 1111.68 261.947 1114.45 262.917C1117.26 263.887 1119.7 265.376 1121.78 267.385C1123.89 269.394 1125.48 271.455 1126.56 273.567C1127.63 275.645 1128.17 276.684 1128.17 276.684L1120.95 279.801C1120.95 279.801 1120.55 279.005 1119.75 277.412C1118.99 275.819 1117.88 274.312 1116.43 272.892C1115.01 271.472 1113.36 270.45 1111.49 269.827C1109.62 269.169 1107.3 268.84 1104.53 268.84C1100.06 268.84 1096.43 269.844 1093.62 271.853C1090.85 273.862 1089.46 276.58 1089.46 280.009C1089.46 282.745 1090.42 285.152 1092.32 287.231C1094.23 289.274 1099.44 291.629 1107.96 294.296C1115.96 296.824 1121.57 299.907 1124.79 303.543C1128.01 307.18 1129.62 311.63 1129.62 316.895C1129.62 323.337 1127.3 328.497 1122.66 332.376C1118.05 336.221 1112.12 338.143 1104.84 338.143ZM1159.98 338.143C1152.05 338.143 1145.42 335.407 1140.09 329.935C1134.79 324.428 1132.14 317.761 1132.14 309.933C1132.14 302.106 1134.79 295.456 1140.09 289.984C1145.42 284.512 1152.05 281.776 1159.98 281.776C1167.85 281.776 1174.46 284.529 1179.83 290.036C1185.2 295.508 1187.88 302.141 1187.88 309.933C1187.88 317.761 1185.2 324.428 1179.83 329.935C1174.5 335.407 1167.88 338.143 1159.98 338.143ZM1159.98 330.61C1165.42 330.61 1170.08 328.653 1173.96 324.739C1177.87 320.791 1179.83 315.856 1179.83 309.933C1179.83 304.011 1177.87 299.11 1173.96 295.231C1170.08 291.317 1165.42 289.361 1159.98 289.361C1154.51 289.361 1149.84 291.317 1145.96 295.231C1142.08 299.11 1140.14 304.011 1140.14 309.933C1140.14 315.856 1142.08 320.791 1145.96 324.739C1149.84 328.653 1154.51 330.61 1159.98 330.61ZM1193.2 337V262.606H1201.04V337H1193.2ZM1227.88 338.143C1221.75 338.143 1216.99 336.307 1213.59 332.636C1210.23 328.93 1208.55 323.926 1208.55 317.622V282.97H1216.4V315.7C1216.4 320.583 1217.51 324.324 1219.72 326.921C1221.94 329.484 1225.2 330.766 1229.49 330.766C1234.1 330.766 1237.85 329.138 1240.76 325.882C1243.71 322.592 1245.18 318.471 1245.18 313.518V282.97H1253.02V337H1245.39V325.051L1248.97 328.636H1245.28C1243.62 331.58 1241.27 333.9 1238.22 335.597C1235.17 337.294 1231.72 338.143 1227.88 338.143ZM1278.02 338.143C1274.31 338.143 1271.19 337.035 1268.67 334.818C1266.14 332.567 1264.87 328.861 1264.87 323.7V269.048H1272.72V322.921C1272.72 325.9 1273.27 327.995 1274.38 329.207C1275.52 330.419 1277.13 331.026 1279.21 331.026C1280.04 331.026 1280.82 330.974 1281.55 330.87C1282.28 330.731 1283.18 330.506 1284.25 330.194C1285.32 329.883 1285.86 329.727 1285.86 329.727V336.792C1285.86 336.792 1285.34 336.931 1284.3 337.208C1283.3 337.52 1282.28 337.745 1281.24 337.883C1280.2 338.056 1279.12 338.143 1278.02 338.143ZM1255.83 289.776V282.97H1286.12V289.776H1255.83ZM1292.03 337V282.97H1299.87V337H1292.03ZM1295.97 275.126C1294.45 275.126 1293.13 274.589 1292.03 273.515C1290.95 272.407 1290.42 271.074 1290.42 269.515C1290.42 267.991 1290.95 266.71 1292.03 265.671C1293.13 264.632 1294.45 264.112 1295.97 264.112C1297.53 264.112 1298.85 264.632 1299.92 265.671C1301 266.71 1301.53 267.991 1301.53 269.515C1301.53 271.074 1301 272.407 1299.92 273.515C1298.85 274.589 1297.53 275.126 1295.97 275.126ZM1334.63 338.143C1326.7 338.143 1320.07 335.407 1314.73 329.935C1309.43 324.428 1306.78 317.761 1306.78 309.933C1306.78 302.106 1309.43 295.456 1314.73 289.984C1320.07 284.512 1326.7 281.776 1334.63 281.776C1342.49 281.776 1349.11 284.529 1354.48 290.036C1359.84 295.508 1362.53 302.141 1362.53 309.933C1362.53 317.761 1359.84 324.428 1354.48 329.935C1349.14 335.407 1342.53 338.143 1334.63 338.143ZM1334.63 330.61C1340.07 330.61 1344.73 328.653 1348.61 324.739C1352.52 320.791 1354.48 315.856 1354.48 309.933C1354.48 304.011 1352.52 299.11 1348.61 295.231C1344.73 291.317 1340.07 289.361 1334.63 289.361C1329.16 289.361 1324.48 291.317 1320.6 295.231C1316.72 299.11 1314.79 304.011 1314.79 309.933C1314.79 315.856 1316.72 320.791 1320.6 324.739C1324.48 328.653 1329.16 330.61 1334.63 330.61ZM1367.84 337V282.97H1375.48V292.218L1374.34 291.231H1375.58C1377.25 288.529 1379.69 286.278 1382.91 284.477C1386.13 282.676 1389.58 281.776 1393.25 281.776C1399.41 281.776 1404.21 283.68 1407.64 287.49C1411.07 291.3 1412.78 296.322 1412.78 302.556V337H1404.94V303.855C1404.94 299.387 1403.85 295.837 1401.66 293.205C1399.48 290.538 1396.07 289.205 1391.43 289.205C1387.1 289.205 1383.39 290.815 1380.31 294.036C1377.23 297.223 1375.69 301.257 1375.69 306.141V337H1367.84ZM1438.13 338.143C1434.45 338.143 1431.3 337.675 1428.67 336.74C1426.07 335.805 1423.82 334.454 1421.92 332.688C1420.01 330.922 1418.56 329.069 1417.55 327.129C1416.58 325.19 1416.1 324.22 1416.1 324.22L1423.22 320.895C1423.22 320.895 1423.65 321.674 1424.51 323.233C1425.42 324.757 1426.47 326.108 1427.68 327.285C1428.93 328.463 1430.42 329.38 1432.15 330.039C1433.92 330.697 1436.08 331.026 1438.65 331.026C1442.04 331.026 1444.85 330.298 1447.06 328.844C1449.31 327.354 1450.44 325.328 1450.44 322.765C1450.44 320.168 1449.52 318.228 1447.69 316.947C1445.88 315.631 1442.44 314.349 1437.35 313.102C1430.04 311.336 1425.02 309.189 1422.28 306.66C1419.54 304.097 1418.18 300.824 1418.18 296.842C1418.18 292.408 1420.03 288.789 1423.74 285.984C1427.48 283.178 1432.2 281.776 1437.92 281.776C1440.72 281.776 1443.2 282.122 1445.35 282.815C1447.49 283.507 1449.42 284.564 1451.11 285.984C1452.85 287.404 1454.23 288.962 1455.27 290.659C1456.34 292.356 1456.88 293.205 1456.88 293.205L1450.18 296.686C1450.18 296.686 1449.78 296.097 1448.98 294.919C1448.19 293.707 1447.23 292.651 1446.13 291.75C1445.05 290.815 1443.79 290.122 1442.33 289.672C1440.91 289.222 1439.27 288.997 1437.4 288.997C1433.94 288.997 1431.18 289.724 1429.14 291.179C1427.13 292.633 1426.13 294.365 1426.13 296.374C1426.13 298.833 1427.13 300.721 1429.14 302.037C1431.18 303.318 1434.8 304.565 1440 305.777C1446.65 307.37 1451.37 309.379 1454.18 311.804C1457.02 314.193 1458.44 317.657 1458.44 322.194C1458.44 327.112 1456.55 331.008 1452.78 333.883C1449 336.723 1444.12 338.143 1438.13 338.143Z" fill="black" fill-opacity="0.2"/>
<path d="M1230.9 466.6C1226.79 466.533 1223.31 465.067 1220.44 462.2C1217.59 459.333 1216.16 455.813 1216.16 451.64C1216.16 447.387 1217.59 443.847 1220.44 441.02C1223.31 438.18 1226.8 436.76 1230.92 436.76C1232.36 436.76 1233.7 436.92 1234.94 437.24C1236.19 437.547 1237.31 437.987 1238.3 438.56C1239.29 439.12 1240.09 439.713 1240.72 440.34C1241.36 440.953 1241.68 441.26 1241.68 441.26L1239.36 443.6C1239.36 443.6 1239.08 443.327 1238.52 442.78C1237.96 442.22 1237.31 441.727 1236.56 441.3C1235.81 440.86 1234.97 440.52 1234.04 440.28C1233.11 440.04 1232.09 439.92 1230.98 439.92C1227.77 439.92 1225.05 441.007 1222.84 443.18C1220.63 445.353 1219.52 448.167 1219.52 451.62C1219.52 455.047 1220.62 457.873 1222.82 460.1C1225.02 462.327 1227.75 463.44 1231 463.44C1234.13 463.44 1236.64 462.58 1238.52 460.86C1240.41 459.127 1241.47 456.8 1241.7 453.88H1230.96V450.8H1244.98L1245.02 452.74C1245.02 456.807 1243.71 460.133 1241.08 462.72C1238.47 465.307 1235.07 466.6 1230.9 466.6ZM1256.04 466.6C1253.08 466.6 1250.63 465.58 1248.68 463.54C1246.73 461.487 1245.76 458.88 1245.76 455.72C1245.76 452.6 1246.71 450.02 1248.62 447.98C1250.54 445.927 1252.93 444.9 1255.8 444.9C1258.75 444.9 1261.11 445.793 1262.9 447.58C1264.69 449.367 1265.58 451.593 1265.58 454.26V456.4H1247.68V453.64H1262.12C1262.04 452 1261.43 450.64 1260.28 449.56C1259.15 448.467 1257.65 447.92 1255.8 447.92C1253.84 447.92 1252.23 448.633 1250.96 450.06C1249.71 451.487 1249.08 453.373 1249.08 455.72C1249.08 458.093 1249.77 459.993 1251.14 461.42C1252.51 462.847 1254.19 463.56 1256.18 463.56C1257.14 463.56 1257.97 463.433 1258.66 463.18C1259.35 462.913 1259.97 462.54 1260.52 462.06C1261.08 461.567 1261.69 460.8 1262.36 459.76L1265.16 461.1C1264.44 462.553 1263.64 463.647 1262.76 464.38C1261.89 465.113 1260.93 465.667 1259.86 466.04C1258.79 466.413 1257.52 466.6 1256.04 466.6ZM1275.12 466.6C1273.53 466.6 1272.23 466.113 1271.22 465.14C1270.22 464.153 1269.72 462.76 1269.72 460.96V439.84H1273.02V460.26C1273.02 461.407 1273.25 462.24 1273.7 462.76C1274.15 463.28 1274.81 463.54 1275.68 463.54C1275.92 463.54 1276.17 463.52 1276.44 463.48C1276.71 463.427 1277.05 463.34 1277.46 463.22C1277.89 463.087 1278.1 463.02 1278.1 463.02V466.06C1278.1 466.06 1277.91 466.113 1277.54 466.22C1277.17 466.34 1276.79 466.433 1276.4 466.5C1276.03 466.567 1275.6 466.6 1275.12 466.6ZM1266.18 448.46V445.5H1278.08V448.46H1266.18ZM1288.33 466V437.36H1291.65V466H1288.33ZM1295.68 466V445.5H1298.84V449.08L1298.32 448.54H1298.94C1299.54 447.5 1300.46 446.633 1301.7 445.94C1302.94 445.247 1304.24 444.9 1305.62 444.9C1308 444.9 1309.86 445.613 1311.18 447.04C1312.5 448.453 1313.16 450.4 1313.16 452.88V466H1309.86V453.4C1309.86 451.627 1309.43 450.273 1308.58 449.34C1307.74 448.393 1306.46 447.92 1304.76 447.92C1303.13 447.92 1301.76 448.553 1300.64 449.82C1299.53 451.087 1298.98 452.62 1298.98 454.42V466H1295.68ZM1330.41 466V438.9H1333.73V466H1330.41ZM1322.15 440.52V437.36H1341.95V440.52H1322.15ZM1349.2 466.6C1346.18 466.6 1343.66 465.56 1341.66 463.48C1339.66 461.4 1338.66 458.82 1338.66 455.74C1338.66 452.607 1339.66 450.02 1341.66 447.98C1343.68 445.927 1346.19 444.9 1349.2 444.9C1352.2 444.9 1354.71 445.933 1356.72 448C1358.74 450.067 1359.74 452.647 1359.74 455.74C1359.74 458.82 1358.74 461.4 1356.74 463.48C1354.76 465.56 1352.24 466.6 1349.2 466.6ZM1349.2 463.56C1351.23 463.56 1352.94 462.827 1354.34 461.36C1355.74 459.893 1356.44 458.02 1356.44 455.74C1356.44 453.42 1355.74 451.54 1354.32 450.1C1352.91 448.66 1351.2 447.94 1349.2 447.94C1347.18 447.94 1345.46 448.667 1344.06 450.12C1342.66 451.56 1341.96 453.433 1341.96 455.74C1341.96 458.02 1342.66 459.893 1344.04 461.36C1345.44 462.827 1347.16 463.56 1349.2 463.56ZM1369.37 466.6C1366.96 466.6 1365.1 465.887 1363.79 464.46C1362.5 463.033 1361.85 461.033 1361.85 458.46V445.5H1365.15V457.88C1365.15 459.733 1365.57 461.147 1366.41 462.12C1367.25 463.093 1368.47 463.58 1370.07 463.58C1371.75 463.58 1373.16 462.947 1374.29 461.68C1375.42 460.413 1375.99 458.88 1375.99 457.08V445.5H1379.29V466H1376.13V461.48L1377.63 462.98H1376.03C1375.43 464.033 1374.52 464.9 1373.29 465.58C1372.06 466.26 1370.76 466.6 1369.37 466.6ZM1391.96 466.6C1388.96 466.6 1386.47 465.573 1384.5 463.52C1382.54 461.467 1381.56 458.847 1381.56 455.66C1381.56 452.5 1382.55 449.92 1384.54 447.92C1386.52 445.907 1389 444.9 1391.96 444.9C1393.22 444.9 1394.39 445.087 1395.46 445.46C1396.54 445.82 1397.52 446.393 1398.42 447.18C1399.31 447.953 1400.11 449.093 1400.82 450.6L1397.88 451.86C1397.33 450.82 1396.78 450.033 1396.22 449.5C1395.66 448.967 1395 448.573 1394.26 448.32C1393.52 448.053 1392.72 447.92 1391.84 447.92C1389.92 447.92 1388.27 448.633 1386.9 450.06C1385.54 451.487 1384.86 453.353 1384.86 455.66C1384.86 457.98 1385.53 459.88 1386.88 461.36C1388.24 462.84 1389.89 463.58 1391.84 463.58C1392.73 463.58 1393.54 463.447 1394.28 463.18C1395.02 462.9 1395.67 462.513 1396.22 462.02C1396.78 461.513 1397.38 460.693 1398.04 459.56L1400.92 460.94C1400.13 462.447 1399.3 463.573 1398.44 464.32C1397.58 465.053 1396.61 465.613 1395.52 466C1394.44 466.4 1393.25 466.6 1391.96 466.6ZM1402.83 466V437.36H1406.13V448.54H1406.21C1406.83 447.487 1407.72 446.62 1408.89 445.94C1410.08 445.247 1411.37 444.9 1412.77 444.9C1415.17 444.9 1417.03 445.613 1418.33 447.04C1419.65 448.467 1420.31 450.413 1420.31 452.88V466H1417.01V453.4C1417.01 451.667 1416.59 450.32 1415.73 449.36C1414.88 448.4 1413.64 447.92 1412.01 447.92C1410.41 447.92 1409.03 448.58 1407.87 449.9C1406.71 451.207 1406.13 452.747 1406.13 454.52V466H1402.83ZM1448.16 457C1448.56 456.147 1448.95 455.4 1449.32 454.76C1449.72 454.12 1450.11 453.587 1450.48 453.16H1427.16V451.48H1450.48C1450.11 451.027 1449.72 450.48 1449.32 449.84C1448.95 449.2 1448.56 448.467 1448.16 447.64H1449.56C1451.24 449.587 1453 451.027 1454.84 451.96V452.68C1453 453.587 1451.24 455.027 1449.56 457H1448.16Z" fill="#F45F00"/>
</svg>
