<svg width="300" height="74" viewBox="0 0 300 74" fill="none" xmlns="http://www.w3.org/2000/svg">
<rect y="56.1699" width="44.6995" height="15.7091" transform="rotate(-90 0 56.1699)" fill="#FA9819"/>
<rect x="18.8662" y="56.1699" width="44.6995" height="13.4759" transform="rotate(-90 18.8662 56.1699)" fill="#F45F00"/>
<rect x="35.374" y="56.1699" width="44.6995" height="8.75937" transform="rotate(-90 35.374 56.1699)" fill="#48749E"/>
<path d="M59.8674 52V16.1779H65.2805V52H59.8674ZM68.5016 52V20.5562H72.7206L73.8616 26.6327V52H68.5016ZM88.217 52V34.0359C88.217 30.3918 87.6686 27.809 86.5718 26.2877C85.4928 24.7664 83.8476 24.0057 81.6364 24.0057C79.4251 24.0057 77.55 24.8194 76.011 26.4469C74.4719 28.0744 73.7024 30.1264 73.7024 32.603L71.102 30.9578C71.102 28.3751 72.2607 25.9428 74.5781 23.6608C76.9131 21.3788 79.9116 20.2378 83.5734 20.2378C87.2175 20.2378 89.7914 21.4672 91.295 23.9261C92.8164 26.3673 93.577 29.7284 93.577 34.0094V52H88.217ZM98.6452 52V24.2976H92.2503V20.5562H98.6452V18.5661C98.6452 15.4349 99.8923 13.2502 102.387 12.012C104.899 10.756 108.251 10.128 112.443 10.128H113.346V13.7367H112.549C109.861 13.7367 107.764 14.0551 106.261 14.692C104.757 15.3288 104.005 16.629 104.005 18.5926V20.5562H113.001V24.2976H104.005V52H98.6452ZM125.639 52.2653C120.756 52.2653 117.245 50.8502 115.104 48.0198C112.946 45.1717 111.867 41.2357 111.867 36.2118C111.867 30.8871 112.973 26.898 115.184 24.2445C117.377 21.5734 120.836 20.2378 125.559 20.2378C130.424 20.2378 133.909 21.5734 136.014 24.2445C138.101 26.9157 139.145 30.8782 139.145 36.1321C139.145 36.7513 139.109 37.3262 139.039 37.8569H116.484V34.5135H133.732C133.59 30.6571 132.891 27.9329 131.636 26.3408C130.185 24.6425 128.159 23.7934 125.559 23.7934C123.029 23.7934 120.986 24.6868 119.429 26.4735C117.855 28.2778 117.068 31.5239 117.068 36.2118C117.068 40.6519 117.829 43.8361 119.35 45.7643C120.854 47.7279 122.95 48.7097 125.639 48.7097V52.2653ZM125.639 48.7097C127.178 48.7097 128.522 48.4532 129.672 47.9402C130.822 47.4272 131.715 46.5515 132.352 45.3132C132.953 44.0749 133.404 42.6774 133.705 41.1207L138.535 42.4209C138.234 44.5791 137.544 46.41 136.465 47.9136C135.368 49.435 133.953 50.5406 132.219 51.2305C130.486 51.9204 128.292 52.2653 125.639 52.2653V48.7097ZM159.08 35.2034C159.08 30.8871 158.558 27.9506 157.514 26.3939C156.488 24.8194 154.976 24.0322 152.977 24.0322C150.695 24.0322 148.899 24.8018 147.59 26.3408C146.281 27.8621 145.626 29.5869 145.626 31.5151L143.557 30.0026C143.557 27.3137 144.583 25.0229 146.635 23.1301C148.687 21.2372 151.446 20.2908 154.914 20.2908C158.487 20.2908 160.964 21.4849 162.343 23.873C163.741 26.2435 164.44 30.0203 164.44 35.2034H159.08ZM140.293 52V20.5562H144.512L145.653 26.6327V52H140.293ZM178.043 52.2653C173.161 52.2653 169.649 50.8502 167.509 48.0198C165.35 45.1717 164.271 41.2357 164.271 36.2118C164.271 30.8871 165.377 26.898 167.588 24.2445C169.782 21.5734 173.24 20.2378 177.963 20.2378C182.828 20.2378 186.313 21.5734 188.418 24.2445C190.505 26.9157 191.549 30.8782 191.549 36.1321C191.549 36.7513 191.514 37.3262 191.443 37.8569H168.888V34.5135H186.136C185.995 30.6571 185.296 27.9329 184.04 26.3408C182.589 24.6425 180.564 23.7934 177.963 23.7934C175.434 23.7934 173.39 24.6868 171.834 26.4735C170.259 28.2778 169.472 31.5239 169.472 36.2118C169.472 40.6519 170.233 43.8361 171.754 45.7643C173.258 47.7279 175.354 48.7097 178.043 48.7097V52.2653ZM178.043 48.7097C179.582 48.7097 180.926 48.4532 182.076 47.9402C183.226 47.4272 184.119 46.5515 184.756 45.3132C185.358 44.0749 185.809 42.6774 186.11 41.1207L190.939 42.4209C190.638 44.5791 189.948 46.41 188.869 47.9136C187.772 49.435 186.357 50.5406 184.624 51.2305C182.89 51.9204 180.696 52.2653 178.043 52.2653V48.7097ZM192.697 52V20.5562H196.916L198.057 26.6327V52H192.697ZM212.413 52V34.0359C212.413 30.3918 211.864 27.809 210.767 26.2877C209.688 24.7664 208.043 24.0057 205.832 24.0057C203.621 24.0057 201.746 24.8194 200.207 26.4469C198.668 28.0744 197.898 30.1264 197.898 32.603L195.298 30.9578C195.298 28.3751 196.456 25.9428 198.774 23.6608C201.109 21.3788 204.107 20.2378 207.769 20.2378C211.413 20.2378 213.987 21.4672 215.491 23.9261C217.012 26.3673 217.773 29.7284 217.773 34.0094V52H212.413ZM232.262 52.2123C228.477 52.2123 225.416 51.5312 223.081 50.1691C220.746 48.807 219.304 46.3658 218.756 42.8455L223.506 41.2268C223.807 43.8803 224.709 45.782 226.212 46.9318C227.734 48.0817 229.777 48.6566 232.342 48.6566C234.765 48.6566 236.579 48.232 237.782 47.3829C239.002 46.5161 239.613 45.384 239.613 43.9865C239.613 41.9875 238.684 40.6519 236.826 39.9797C234.969 39.2898 232.634 38.6353 229.821 38.0161C226.619 37.3262 224.01 36.3444 221.993 35.0708C219.994 33.7794 218.995 31.6389 218.995 28.6493C218.995 25.9251 220.101 23.8553 222.312 22.4402C224.523 21.0073 227.557 20.2908 231.413 20.2908C235.252 20.2908 238.277 20.9896 240.488 22.3871C242.717 23.7669 244.088 26.0666 244.601 29.2862L239.851 30.9048C239.551 28.5874 238.675 26.8273 237.224 25.6243C235.791 24.4214 233.837 23.82 231.36 23.82C228.972 23.82 227.194 24.2534 226.027 25.1202C224.877 25.987 224.302 27.1545 224.302 28.6228C224.302 30.4625 225.178 31.7185 226.929 32.3907C228.698 33.0629 230.936 33.7086 233.642 34.3278C236.844 34.9823 239.524 35.911 241.682 37.1139C243.858 38.2992 244.946 40.4662 244.946 43.615C244.946 46.5161 243.867 48.6743 241.709 50.0895C239.551 51.5047 236.402 52.2123 232.262 52.2123ZM253.36 52L244.179 20.5562H249.778L257.42 48.3117H257.473L265.036 20.5562H270.661L261.56 52H253.36ZM245.453 64.2326V60.5442C248.46 60.5442 250.813 59.9782 252.511 58.846C254.21 57.7315 255.563 55.4495 256.571 52H261.56C260.127 56.9178 258.101 60.1816 255.483 61.7914C252.865 63.4188 249.522 64.2326 245.453 64.2326ZM283.423 52.2123C279.637 52.2123 276.577 51.5312 274.242 50.1691C271.907 48.807 270.465 46.3658 269.917 42.8455L274.666 41.2268C274.967 43.8803 275.869 45.782 277.373 46.9318C278.894 48.0817 280.937 48.6566 283.502 48.6566C285.926 48.6566 287.739 48.232 288.942 47.3829C290.163 46.5161 290.773 45.384 290.773 43.9865C290.773 41.9875 289.844 40.6519 287.987 39.9797C286.129 39.2898 283.794 38.6353 280.982 38.0161C277.78 37.3262 275.17 36.3444 273.154 35.0708C271.155 33.7794 270.155 31.6389 270.155 28.6493C270.155 25.9251 271.261 23.8553 273.472 22.4402C275.683 21.0073 278.717 20.2908 282.574 20.2908C286.412 20.2908 289.437 20.9896 291.649 22.3871C293.878 23.7669 295.249 26.0666 295.762 29.2862L291.012 30.9048C290.711 28.5874 289.835 26.8273 288.385 25.6243C286.952 24.4214 284.997 23.82 282.521 23.82C280.133 23.82 278.355 24.2534 277.187 25.1202C276.037 25.987 275.462 27.1545 275.462 28.6228C275.462 30.4625 276.338 31.7185 278.089 32.3907C279.858 33.0629 282.096 33.7086 284.803 34.3278C288.005 34.9823 290.685 35.911 292.843 37.1139C295.019 38.2992 296.107 40.4662 296.107 43.615C296.107 46.5161 295.027 48.6743 292.869 50.0895C290.711 51.5047 287.562 52.2123 283.423 52.2123Z" fill="white"/>
</svg>
